<svg width="115" height="115" viewBox="0 0 115 115" fill="none" xmlns="http://www.w3.org/2000/svg">
<circle cx="57.5" cy="57.5" r="57.5" fill="#6CC7BE"/>
<path d="M75.47 21.5286L68.482 28.5165C67.7696 29.229 66.6175 29.229 65.9051 28.5165L49.0793 11.6908C48.3668 10.9784 48.3668 9.82636 49.0793 9.11392L56.0673 2.12595C58.9019 -0.70865 63.5101 -0.70865 66.3598 2.12595L75.47 11.2361C78.3198 14.0707 78.3198 18.6788 75.47 21.5286ZM43.0766 15.1166L3.27062 54.9223L0.0570417 73.3396C-0.382552 75.8256 1.7851 77.978 4.27107 77.5536L22.6885 74.3249L62.4944 34.5192C63.2069 33.8068 63.2069 32.6547 62.4944 31.9423L45.6686 15.1166C44.941 14.4042 43.789 14.4042 43.0766 15.1166V15.1166ZM18.808 51.5117C17.9743 50.6779 17.9743 49.344 18.808 48.5103L42.1519 25.1666C42.9856 24.3328 44.3195 24.3328 45.1533 25.1666C45.987 26.0003 45.987 27.3342 45.1533 28.1679L21.8093 51.5117C20.9756 52.3454 19.6417 52.3454 18.808 51.5117V51.5117ZM13.3358 64.2598H20.6118V69.7622L10.8347 71.4751L6.1204 66.7609L7.8333 56.9838H13.3358V64.2598Z" transform="translate(18.3435 18.3435)" fill="white"/>
</svg>
