<svg width="115" height="115" viewBox="0 0 115 115" fill="none" xmlns="http://www.w3.org/2000/svg">
<circle cx="57.5" cy="57.5" r="57.5" fill="#6CC7BE"/>
<path d="M36.2799 66.2544L28.3456 63.9616C27.5131 63.7284 27.0449 62.8605 27.279 62.0314L45.0336 1.12217C45.2677 0.293124 46.1392 -0.173216 46.9717 0.059954L54.906 2.3528C55.7384 2.58597 56.2067 3.45388 55.9725 4.28293L38.2179 65.1922C37.9708 66.0212 37.1123 66.5005 36.2799 66.2544V66.2544ZM21.4519 51.7201L27.1099 45.7095C27.7082 45.0748 27.6692 44.0644 27.0059 43.4815L15.2215 33.1572L27.0059 22.8329C27.6692 22.25 27.7212 21.2396 27.1099 20.6049L21.4519 14.5942C20.8665 13.9724 19.878 13.9336 19.2407 14.5295L0.497519 32.0172C-0.16584 32.6261 -0.16584 33.6753 0.497519 34.2842L19.2407 51.7849C19.878 52.3808 20.8665 52.3549 21.4519 51.7201V51.7201ZM64.0109 51.7979L82.754 34.2971C83.4174 33.6883 83.4174 32.639 82.754 32.0302L64.0109 14.5165C63.3865 13.9336 62.398 13.9595 61.7997 14.5813L56.1416 20.5919C55.5433 21.2266 55.5823 22.237 56.2457 22.82L68.0301 33.1572L56.2457 43.4815C55.5823 44.0644 55.5303 45.0748 56.1416 45.7095L61.7997 51.7201C62.385 52.3549 63.3735 52.3808 64.0109 51.7979V51.7979Z" transform="translate(15.5215 23.9878)" fill="white"/>
</svg>
