<svg width="115" height="115" viewBox="0 0 115 115" fill="none" xmlns="http://www.w3.org/2000/svg">
<path d="M57.5128 28.0155C41.196 28.0155 28.0349 41.1796 28.0349 57.5C28.0349 73.8204 41.196 86.9845 57.5128 86.9845C73.8296 86.9845 86.9908 73.8204 86.9908 57.5C86.9908 41.1796 73.8296 28.0155 57.5128 28.0155ZM57.5128 76.6688C46.9685 76.6688 38.3483 68.0723 38.3483 57.5C38.3483 46.9276 46.9428 38.3312 57.5128 38.3312C68.0828 38.3312 76.6774 46.9276 76.6774 57.5C76.6774 68.0723 68.0572 76.6688 57.5128 76.6688ZM95.0722 26.8094C95.0722 30.6329 91.9936 33.6865 88.1966 33.6865C84.374 33.6865 81.321 30.6072 81.321 26.8094C81.321 23.0115 84.3996 19.9322 88.1966 19.9322C91.9936 19.9322 95.0722 23.0115 95.0722 26.8094ZM114.596 33.7892C114.16 24.5769 112.056 16.4167 105.309 9.69346C98.587 2.97027 90.4286 0.86606 81.2184 0.404162C71.7259 -0.134721 43.2741 -0.134721 33.7817 0.404162C24.597 0.840399 16.4387 2.94461 9.6913 9.6678C2.94395 16.391 0.865867 24.5512 0.404071 33.7635C-0.13469 43.2581 -0.13469 71.7162 0.404071 81.2108C0.840212 90.4231 2.94395 98.5833 9.6913 105.307C16.4387 112.03 24.5714 114.134 33.7817 114.596C43.2741 115.135 71.7259 115.135 81.2184 114.596C90.4286 114.16 98.587 112.055 105.309 105.307C112.03 98.5833 114.134 90.4231 114.596 81.2108C115.135 71.7162 115.135 43.2838 114.596 33.7892ZM102.333 91.3982C100.332 96.4278 96.4576 100.303 91.4035 102.33C83.8352 105.332 65.8765 104.639 57.5128 104.639C49.1492 104.639 31.1648 105.307 23.6221 102.33C18.5937 100.328 14.7197 96.4535 12.693 91.3982C9.6913 83.8282 10.384 65.8655 10.384 57.5C10.384 49.1345 9.71696 31.1461 12.693 23.6018C14.6941 18.5722 18.568 14.6974 23.6221 12.6701C31.1905 9.6678 49.1492 10.3606 57.5128 10.3606C65.8765 10.3606 83.8609 9.69346 91.4035 12.6701C96.432 14.6717 100.306 18.5465 102.333 23.6018C105.334 31.1718 104.642 49.1345 104.642 57.5C104.642 65.8655 105.334 83.8539 102.333 91.3982Z" fill="#FFFFFF"/>
</svg>
