<svg width="115" height="116" viewBox="0 0 115 116" fill="none" xmlns="http://www.w3.org/2000/svg">
<ellipse cx="57.4462" cy="57.5101" rx="57.4462" ry="57.5101" fill="#6CC7BE"/>
<path d="M34.1858 38.8105C44.9756 38.8105 53.7205 30.1236 53.7205 19.4052C53.7205 8.68688 44.9756 0 34.1858 0C23.3959 0 14.651 8.68688 14.651 19.4052C14.651 30.1236 23.3959 38.8105 34.1858 38.8105ZM48.8063 43.7528L41.5113 72.7697L36.6276 52.1516L41.5113 43.6618H26.8602L31.7439 52.1516L26.8602 72.7697L19.5652 43.7528C8.68379 44.2682 0 53.1067 0 64.0373V70.344C0 74.3615 3.28122 77.621 7.32552 77.621H61.046C65.0903 77.621 68.3715 74.3615 68.3715 70.344V64.0373C68.3715 53.1067 59.6877 44.2682 48.8063 43.7528V43.7528Z" transform="translate(91.3715 18.0201) scale(-1 1)" fill="white"/>
</svg>
