<svg width="264" height="151" viewBox="0 0 264 151" fill="none" xmlns="http://www.w3.org/2000/svg">
<path d="M47.9286 95.9895C251.036 97.1697 95.8571 74.5015 95.8571 47.9947C95.8571 21.488 74.3988 0 47.9286 0C21.4583 0 0 21.488 0 47.9947C0 74.5015 21.4583 95.9895 47.9286 95.9895Z" transform="translate(0 54.2891)" fill="white"/>
<path d="M190.676 47.9947C190.676 74.5015 169.218 95.9895 142.748 95.9895C-147.574 101.497 94.8191 74.5015 94.8191 47.9947C94.8191 21.488 116.277 0 142.748 0C169.218 0 190.676 21.488 190.676 47.9947Z" transform="translate(73.3237 54.2891)" fill="white"/>
<ellipse cx="60.5" cy="60.5835" rx="60.5" ry="60.5835" transform="translate(109.214 29.1116)" fill="white"/>
<ellipse cx="75.0357" cy="75.1393" rx="75.0357" ry="75.1393" transform="translate(32.2143)" fill="white"/>
</svg>
