<svg width="307" height="153" viewBox="0 0 307 153" fill="none" xmlns="http://www.w3.org/2000/svg">
<path d="M109 54.5C109 84.5995 342 109 54.5 109C24.4005 109 0 84.5995 0 54.5C0 24.4005 24.4005 0 54.5 0C84.5995 0 109 24.4005 109 54.5Z" transform="translate(0 39)" fill="white"/>
<circle cx="64" cy="64" r="64" transform="translate(58 20)" fill="white"/>
<circle cx="74" cy="74" r="74" transform="translate(122)" fill="white"/>
<path d="M264.759 57C264.759 88.4802 239.239 114 207.759 114C-223.741 114 150.759 88.4802 150.759 57C150.759 25.5198 176.279 0 207.759 0C239.239 0 264.759 25.5198 264.759 57Z" transform="translate(42.2408 39)" fill="white"/>
</svg>
