<svg width="1440" height="900" viewBox="0 0 1440 900" fill="none" xmlns="http://www.w3.org/2000/svg">
<g clip-path="url(#clip0)">
<rect width="1440" height="900" fill="#ECECEC"/>
<rect x="1440" y="900" width="1440" height="900" transform="rotate(-180 1440 900)" fill="#74CAE9"/>
<rect x="1440" y="900" width="1440" height="900" transform="rotate(-180 1440 900)" fill="url(#paint0_linear)"/>
<rect width="1343" height="400" fill="black" fill-opacity="0" transform="translate(55 50)"/>
<rect width="1343" height="400" fill="black" fill-opacity="0" transform="translate(55 50)"/>
<rect width="394" height="146.01" fill="black" fill-opacity="0" transform="translate(179 50)"/>
<rect width="394" height="146.01" fill="black" fill-opacity="0" transform="translate(179 50)"/>
<path d="M262 154.5C262 177.42 583.5 196.5 220.5 196C197.58 196 179 177.42 179 154.5C179 131.58 197.58 113 220.5 113C243.42 113 262 131.58 262 154.5Z" fill="white"/>
<path d="M573 154.5C573 177.42 554.42 195.98 531.5 196C-36.5 196.5 490 177.42 490 154.5C490 131.58 508.58 113 531.5 113C554.42 113 573 131.58 573 154.5Z" fill="white"/>
<circle cx="475" cy="147" r="49" fill="white"/>
<circle cx="331" cy="123" r="73" fill="white"/>
<circle cx="417" cy="135" r="61" fill="white"/>
<circle cx="262" cy="147" r="49" fill="white"/>
<rect width="307" height="153" fill="black" fill-opacity="0" transform="translate(1091 252)"/>
<rect width="307" height="153" fill="black" fill-opacity="0" transform="translate(1091 252)"/>
<path d="M1200 345.5C1200 375.6 1433 400 1145.5 400C1115.4 400 1091 375.6 1091 345.5C1091 315.4 1115.4 291 1145.5 291C1175.6 291 1200 315.4 1200 345.5Z" fill="white"/>
<circle cx="1213" cy="336" r="64" fill="white"/>
<circle cx="1287" cy="326" r="74" fill="white"/>
<path d="M1398 348C1398 379.48 1372.48 405 1341 405C909.5 405 1284 379.48 1284 348C1284 316.52 1309.52 291 1341 291C1372.48 291 1398 316.52 1398 348Z" fill="white"/>
<rect width="290" height="166" fill="black" fill-opacity="0" transform="translate(718 86)"/>
<rect width="290" height="166" fill="black" fill-opacity="0" transform="translate(718 86)"/>
<path d="M770.649 251.207C993.759 252.504 823.298 227.584 823.298 198.444C823.298 169.305 799.726 145.682 770.649 145.682C741.572 145.682 718 169.305 718 198.444C718 227.584 741.572 251.207 770.649 251.207Z" fill="white"/>
<path d="M1008 198.444C1008 227.584 984.428 251.207 955.351 251.207C636.438 257.262 902.702 227.584 902.702 198.444C902.702 169.305 926.274 145.682 955.351 145.682C984.428 145.682 1008 169.305 1008 198.444Z" fill="white"/>
<ellipse cx="904.429" cy="184.605" rx="66.4583" ry="66.6017" fill="white"/>
<ellipse cx="835.812" cy="168.603" rx="82.4256" ry="82.6035" fill="white"/>
<rect width="264" height="151" fill="black" fill-opacity="0" transform="translate(55 299)"/>
<rect width="264" height="151" fill="black" fill-opacity="0" transform="translate(55 299)"/>
<path d="M102.929 449.279C306.036 450.459 150.857 427.791 150.857 401.284C150.857 374.777 129.399 353.289 102.929 353.289C76.4583 353.289 55 374.777 55 401.284C55 427.791 76.4583 449.279 102.929 449.279Z" fill="white"/>
<path d="M319 401.284C319 427.791 297.542 449.279 271.071 449.279C-19.25 454.786 223.143 427.791 223.143 401.284C223.143 374.777 244.601 353.289 271.071 353.289C297.542 353.289 319 374.777 319 401.284Z" fill="white"/>
<ellipse cx="224.714" cy="388.695" rx="60.5" ry="60.5835" fill="white"/>
<ellipse cx="162.25" cy="374.139" rx="75.0357" ry="75.1393" fill="white"/>
</g>
<defs>
<linearGradient id="paint0_linear" x1="2160" y1="900" x2="2160" y2="1800" gradientUnits="userSpaceOnUse">
<stop stop-color="white" stop-opacity="0.59"/>
<stop offset="1" stop-color="white" stop-opacity="0"/>
</linearGradient>
<clipPath id="clip0">
<rect width="1440" height="900" fill="white"/>
</clipPath>
</defs>
</svg>
