<svg width="115" height="115" viewBox="0 0 115 115" fill="none" xmlns="http://www.w3.org/2000/svg">
<path d="M106.786 0H8.18862C3.67076 0 0 3.7221 0 8.2913V106.709C0 111.278 3.67076 115 8.18862 115H106.786C111.304 115 115 111.278 115 106.709V8.2913C115 3.7221 111.304 0 106.786 0ZM34.7567 98.5714H17.7121V43.6897H34.7824V98.5714H34.7567ZM26.2344 36.1942C20.7667 36.1942 16.3516 31.7533 16.3516 26.3114C16.3516 20.8694 20.7667 16.4286 26.2344 16.4286C31.6763 16.4286 36.1172 20.8694 36.1172 26.3114C36.1172 31.779 31.702 36.1942 26.2344 36.1942ZM98.6484 98.5714H81.6038V71.875C81.6038 65.5089 81.4754 57.3203 72.7478 57.3203C63.8661 57.3203 62.5056 64.2511 62.5056 71.4129V98.5714H45.4609V43.6897H61.8125V51.1853H62.0435C64.3281 46.8728 69.8984 42.3292 78.1897 42.3292C95.4397 42.3292 98.6484 53.7009 98.6484 68.4866V98.5714Z" fill="#FFFFFF"/>
</svg>
